<svg width="206" height="130" viewBox="0 0 206 130" fill="none" xmlns="http://www.w3.org/2000/svg">
<path d="M14.2534 130H0.0488281L16.0526 79H34.0449L50.0488 130H35.8442L25.2383 93.0449H24.8594L14.2534 130ZM11.6019 109.879H38.3064V120.238H11.6019V109.879Z" fill="white"/>
<path d="M55.0488 129V80H68.306V118.281H88.0488V129H55.0488Z" fill="white"/>
<path d="M93.0488 129V80H106.306V118.281H126.049V129H93.0488Z" fill="white"/>
<path d="M157.049 80V129H143.049V80H157.049Z" fill="white"/>
<path d="M205.049 80V129H194.051L176.512 103.256H176.227V129H163.049V80H174.236L191.491 105.649H191.871V80H205.049Z" fill="white"/>
<path d="M0.000907158 60L20.9169 32.532L20.5809 41.604L0.504907 14.472H18.4809L29.7369 30.516L23.0169 30.852L34.9449 14.472H51.8289L31.7529 41.016V32.28L52.4169 60H34.1889L22.4289 42.864L29.1489 43.788L17.3049 60H0.000907158ZM47.8855 48.744V37.908L74.2615 1.2H91.4815L65.8615 37.908L57.9655 35.556H103.914V48.744H47.8855ZM78.9655 60V48.744L79.4695 35.556V25.56H95.1775V60H78.9655ZM129.886 61.176C124.846 61.176 120.366 59.972 116.446 57.564C112.582 55.156 109.53 51.684 107.29 47.148C105.05 42.612 103.93 37.096 103.93 30.6C103.93 24.104 105.05 18.588 107.29 14.052C109.53 9.516 112.582 6.044 116.446 3.636C120.366 1.228 124.846 0.0239961 129.886 0.0239961C134.87 0.0239961 139.294 1.228 143.158 3.636C147.078 6.044 150.158 9.516 152.398 14.052C154.638 18.588 155.758 24.104 155.758 30.6C155.758 37.096 154.638 42.612 152.398 47.148C150.158 51.684 147.078 55.156 143.158 57.564C139.294 59.972 134.87 61.176 129.886 61.176ZM129.886 47.568C131.678 47.568 133.246 47.008 134.59 45.888C135.99 44.768 137.082 42.976 137.866 40.512C138.65 37.992 139.042 34.688 139.042 30.6C139.042 26.456 138.65 23.152 137.866 20.688C137.082 18.224 135.99 16.432 134.59 15.312C133.246 14.192 131.678 13.632 129.886 13.632C128.094 13.632 126.498 14.192 125.098 15.312C123.754 16.432 122.662 18.224 121.822 20.688C121.038 23.152 120.646 26.456 120.646 30.6C120.646 34.688 121.038 37.992 121.822 40.512C122.662 42.976 123.754 44.768 125.098 45.888C126.498 47.008 128.094 47.568 129.886 47.568ZM157.164 60V49.584L179.172 29.004C180.74 27.548 181.888 26.26 182.616 25.14C183.4 24.02 183.904 23.012 184.128 22.116C184.408 21.164 184.548 20.296 184.548 19.512C184.548 17.608 183.904 16.124 182.616 15.06C181.384 13.996 179.508 13.464 176.988 13.464C174.86 13.464 172.872 13.94 171.024 14.892C169.176 15.844 167.664 17.272 166.488 19.176L154.14 12.288C156.324 8.592 159.488 5.624 163.632 3.384C167.776 1.144 172.732 0.0239961 178.5 0.0239961C183.036 0.0239961 187.012 0.751997 190.428 2.208C193.844 3.664 196.504 5.736 198.408 8.424C200.368 11.112 201.348 14.276 201.348 17.916C201.348 19.82 201.096 21.724 200.592 23.628C200.088 25.476 199.108 27.464 197.652 29.592C196.252 31.664 194.152 33.988 191.352 36.564L173.88 52.692L171.108 46.812H202.944V60H157.164Z" fill="white"/>
</svg>
